<svg xmlns="http://www.w3.org/2000/svg" xmlns:xlink="http://www.w3.org/1999/xlink" viewBox="0 0 3500 3500" width="3500" height="3500" preserveAspectRatio="xMidYMid meet" style="width: 100%; height: 100%; transform: translate3d(0px, 0px, 0px); content-visibility: visible;"><defs><clipPath id="__lottie_element_86"><rect width="3500" height="3500" x="0" y="0"/></clipPath></defs><g clip-path="url(#__lottie_element_86)"><g transform="matrix(64.73999786376953,0,0,64.73999786376953,26735.689453125,31269.755859375)" opacity="1" style="display: block;"><g opacity="1" transform="matrix(1,0,0,1,0,0)"><path fill="rgb(255,153,51)" fill-opacity="1" d=" M-400.7300109863281,-442.65899658203125 C-400.7300109863281,-442.65899658203125 -371.1470031738281,-442.65899658203125 -371.1470031738281,-442.65899658203125 C-370.71600341796875,-442.65899658203125 -370.36700439453125,-443.00799560546875 -370.36700439453125,-443.4389953613281 C-370.36700439453125,-443.4389953613281 -370.36700439453125,-464.29400634765625 -370.36700439453125,-464.29400634765625 C-370.36700439453125,-464.7250061035156 -370.71600341796875,-465.07501220703125 -371.1470031738281,-465.07501220703125 C-371.1470031738281,-465.07501220703125 -379.2820129394531,-465.07501220703125 -379.2820129394531,-465.07501220703125 C-379.2820129394531,-465.07501220703125 -379.2820129394531,-465.9765625 -379.2820129394531,-465.9765625 C-379.2820129394531,-466.4075622558594 -379.6310119628906,-466.7565612792969 -380.06201171875,-466.7565612792969 C-380.06201171875,-466.7565612792969 -388.1629943847656,-466.7565612792969 -388.1629943847656,-466.7565612792969 C-388.593994140625,-466.7565612792969 -388.9429931640625,-466.4075622558594 -388.9429931640625,-465.9765625 C-388.9429931640625,-465.9765625 -388.9429931640625,-465.07501220703125 -388.9429931640625,-465.07501220703125 C-388.9429931640625,-465.07501220703125 -392.89801025390625,-465.07501220703125 -392.89801025390625,-465.07501220703125 C-392.89801025390625,-465.07501220703125 -392.89801025390625,-465.6499938964844 -392.89801025390625,-465.6499938964844 C-392.89801025390625,-466.08099365234375 -393.24798583984375,-466.4309997558594 -393.67999267578125,-466.4309997558594 C-393.67999267578125,-466.4309997558594 -396.4219970703125,-466.4309997558594 -396.4219970703125,-466.4309997558594 C-396.8529968261719,-466.4309997558594 -397.2030029296875,-466.08099365234375 -397.2030029296875,-465.6499938964844 C-397.2030029296875,-465.6499938964844 -397.2030029296875,-465.07501220703125 -397.2030029296875,-465.07501220703125 C-397.2030029296875,-465.07501220703125 -400.7300109863281,-465.07501220703125 -400.7300109863281,-465.07501220703125 C-401.1610107421875,-465.07501220703125 -401.510009765625,-464.7250061035156 -401.510009765625,-464.29400634765625 C-401.510009765625,-464.29400634765625 -401.510009765625,-443.4389953613281 -401.510009765625,-443.4389953613281 C-401.510009765625,-443.00799560546875 -401.1610107421875,-442.65899658203125 -400.7300109863281,-442.65899658203125z M-387.3819885253906,-465.195556640625 C-387.3819885253906,-465.195556640625 -380.8429870605469,-465.195556640625 -380.8429870605469,-465.195556640625 C-380.8429870605469,-465.195556640625 -380.8429870605469,-465.07501220703125 -380.8429870605469,-465.07501220703125 C-380.8429870605469,-465.07501220703125 -387.3819885253906,-465.07501220703125 -387.3819885253906,-465.07501220703125 C-387.3819885253906,-465.07501220703125 -387.3819885253906,-465.195556640625 -387.3819885253906,-465.195556640625z M-399.95001220703125,-463.5140075683594 C-399.95001220703125,-463.5140075683594 -388.1629943847656,-463.5140075683594 -388.1629943847656,-463.5140075683594 C-388.1629943847656,-463.5140075683594 -380.06201171875,-463.5140075683594 -380.06201171875,-463.5140075683594 C-380.06201171875,-463.5140075683594 -371.9280090332031,-463.5140075683594 -371.9280090332031,-463.5140075683594 C-371.9280090332031,-463.5140075683594 -371.9280090332031,-444.218994140625 -371.9280090332031,-444.218994140625 C-371.9280090332031,-444.218994140625 -399.95001220703125,-444.218994140625 -399.95001220703125,-444.218994140625 C-399.95001220703125,-444.218994140625 -399.95001220703125,-463.5140075683594 -399.95001220703125,-463.5140075683594z"/></g></g><g transform="matrix(64.73999786376953,0,0,64.73999786376953,26754.166015625,31270.35546875)" opacity="1" style="display: block;"><g opacity="1" transform="matrix(1,0,0,1,0,0)"><path fill="rgb(255,153,51)" fill-opacity="1" d=" M-381.58599853515625,-461.1440124511719 C-385.6419982910156,-461.1440124511719 -388.9429931640625,-457.843994140625 -388.9429931640625,-453.7869873046875 C-388.9429931640625,-449.7300109863281 -385.6419982910156,-446.42999267578125 -381.58599853515625,-446.42999267578125 C-377.52899169921875,-446.42999267578125 -374.2279968261719,-449.7300109863281 -374.2279968261719,-453.7869873046875 C-374.2279968261719,-457.843994140625 -377.52899169921875,-461.1440124511719 -381.58599853515625,-461.1440124511719z M-381.58599853515625,-447.989990234375 C-384.7820129394531,-447.989990234375 -387.3819885253906,-450.5899963378906 -387.3819885253906,-453.7869873046875 C-387.3819885253906,-456.9830017089844 -384.7820129394531,-459.5830078125 -381.58599853515625,-459.5830078125 C-378.3900146484375,-459.5830078125 -375.78900146484375,-456.9830017089844 -375.78900146484375,-453.7869873046875 C-375.78900146484375,-450.5899963378906 -378.3900146484375,-447.989990234375 -381.58599853515625,-447.989990234375z"/></g></g><g transform="matrix(64.73999786376953,0,0,64.73999786376953,26754.23046875,31270.35546875)" opacity="1" style="display: block;"><g opacity="1" transform="matrix(1,0,0,1,0,0)"><path fill="rgb(255,153,51)" fill-opacity="1" d=" M-381.58599853515625,-457.61700439453125 C-383.697998046875,-457.61700439453125 -385.4150085449219,-455.89898681640625 -385.4150085449219,-453.7869873046875 C-385.4150085449219,-451.67498779296875 -383.697998046875,-449.9570007324219 -381.58599853515625,-449.9570007324219 C-379.4739990234375,-449.9570007324219 -377.7560119628906,-451.67498779296875 -377.7560119628906,-453.7869873046875 C-377.7560119628906,-455.89898681640625 -379.4739990234375,-457.61700439453125 -381.58599853515625,-457.61700439453125z M-381.58599853515625,-451.51800537109375 C-382.8370056152344,-451.51800537109375 -383.85400390625,-452.5360107421875 -383.85400390625,-453.7869873046875 C-383.85400390625,-455.0379943847656 -382.8370056152344,-456.0559997558594 -381.58599853515625,-456.0559997558594 C-380.3349914550781,-456.0559997558594 -379.3160095214844,-455.0379943847656 -379.3160095214844,-453.7869873046875 C-379.3160095214844,-452.5360107421875 -380.3349914550781,-451.51800537109375 -381.58599853515625,-451.51800537109375z"/></g></g><g transform="matrix(64.73999786376953,0,0,64.73999786376953,26751.99609375,31275.65625)" opacity="1" style="display: block;"><g opacity="1" transform="matrix(1,0,0,1,0,0)"><path fill="rgb(255,153,51)" fill-opacity="1" d=" M-392.1109924316406,-462.1109924316406 C-392.1109924316406,-462.1109924316406 -397.5979919433594,-462.1109924316406 -397.5979919433594,-462.1109924316406 C-398.0299987792969,-462.1109924316406 -398.3789978027344,-461.7619934082031 -398.3789978027344,-461.33099365234375 C-398.3789978027344,-461.33099365234375 -398.3789978027344,-458.0199890136719 -398.3789978027344,-458.0199890136719 C-398.3789978027344,-457.5889892578125 -398.0299987792969,-457.239013671875 -397.5979919433594,-457.239013671875 C-397.5979919433594,-457.239013671875 -392.1109924316406,-457.239013671875 -392.1109924316406,-457.239013671875 C-391.67999267578125,-457.239013671875 -391.33099365234375,-457.5889892578125 -391.33099365234375,-458.0199890136719 C-391.33099365234375,-458.0199890136719 -391.33099365234375,-461.33099365234375 -391.33099365234375,-461.33099365234375 C-391.33099365234375,-461.7619934082031 -391.67999267578125,-462.1109924316406 -392.1109924316406,-462.1109924316406z M-392.8919982910156,-458.8009948730469 C-392.8919982910156,-458.8009948730469 -396.8179931640625,-458.8009948730469 -396.8179931640625,-458.8009948730469 C-396.8179931640625,-458.8009948730469 -396.8179931640625,-460.54998779296875 -396.8179931640625,-460.54998779296875 C-396.8179931640625,-460.54998779296875 -392.8919982910156,-460.54998779296875 -392.8919982910156,-460.54998779296875 C-392.8919982910156,-460.54998779296875 -392.8919982910156,-458.8009948730469 -392.8919982910156,-458.8009948730469z"/></g></g></g></svg>