<?xml version="1.0" encoding="UTF-8"?>
<svg version="1.1" xmlns="http://www.w3.org/2000/svg" width="180" height="180">
<path d="M0 0 C59.4 0 118.8 0 180 0 C180 59.4 180 118.8 180 180 C120.6 180 61.2 180 0 180 C0 120.6 0 61.2 0 0 Z " fill="#040404" transform="translate(0,0)"/>
<path d="M0 0 C59.4 0 118.8 0 180 0 C180 59.4 180 118.8 180 180 C120.6 180 61.2 180 0 180 C0 120.6 0 61.2 0 0 Z M27.25 37.9375 C12.15117912 55.2653208 7.69528546 76.76720396 8.76171875 99.22705078 C10.1855525 115.79662431 17.92103761 131.80333698 29 144 C29.80050781 144.90492188 30.60101562 145.80984375 31.42578125 146.7421875 C43.74703238 159.92136278 61.52569249 169.84853189 79.75927734 171.20532227 C82.75943193 171.30365089 85.74829519 171.32888978 88.75 171.3125 C89.81259033 171.30758545 90.87518066 171.3026709 91.9699707 171.29760742 C99.74101027 171.18163951 106.59660878 170.49813884 114 168 C115.04671875 167.67128906 116.0934375 167.34257812 117.171875 167.00390625 C137.97286582 159.81313311 154.16966982 144.68330223 163.95214844 125.09326172 C172.52864311 106.56139948 174.51297392 83.43148951 167.74072266 63.93408203 C163.98127053 54.1178725 159.13240088 44.78466816 152 37 C151.17628906 36.09636719 150.35257813 35.19273438 149.50390625 34.26171875 C143.55669588 28.02769256 137.516533 23.19297083 130 19 C129.21238281 18.53980469 128.42476563 18.07960938 127.61328125 17.60546875 C120.48379419 13.70487335 112.86593896 11.83388748 105 10 C103.83210938 9.70609375 103.83210938 9.70609375 102.640625 9.40625 C73.05568813 4.85472125 47.20256532 16.65031493 27.25 37.9375 Z " fill="#FBFBFB" transform="translate(0,0)"/>
<path d="M0 0 C0.90637207 -0.00620361 1.81274414 -0.01240723 2.74658203 -0.01879883 C16.43128969 0.23683859 28.67560684 5.89855374 38.6171875 15.234375 C45.19809953 22.43612779 50.35490295 31.18065612 50.875 41.0625 C50.7821875 42.2690625 50.7821875 42.2690625 50.6875 43.5 C46.2325 43.995 46.2325 43.995 41.6875 44.5 C41.39359375 43.28376953 41.39359375 43.28376953 41.09375 42.04296875 C38.31982294 31.77226468 34.16103456 23.02089646 25 17.0625 C12.5404167 10.50982281 -0.9374497 7.94854235 -14.625 12.125 C-24.65908271 15.98218771 -33.33440938 21.11746191 -38.55859375 30.8125 C-46.25862565 48.41257292 -44.8151971 69.91428941 -38.5 87.67578125 C-34.01685825 98.33799009 -26.93305207 104.21285038 -16.48828125 108.73828125 C-4.79076863 112.83346071 9.70140581 111.36904586 20.8125 106.3125 C26.55227688 103.27274277 31.03704608 99.58563124 34.125 93.8125 C35.28810854 86.96308307 36.14676466 80.14158705 32.5 73.9375 C30.32188037 70.9441413 28.09614228 69.05823647 24.6875 67.5 C24.605 68.325 24.5225 69.15 24.4375 70 C22.67089115 78.24417464 18.692662 83.77994432 11.6875 88.5 C5.1895925 91.91230897 -2.10700065 92.5405762 -9.3125 91.5 C-15.01228458 89.29909308 -18.80698376 85.38647718 -22.3125 80.5 C-24.07478966 75.21313103 -24.67121049 69.25389642 -22.1484375 64.140625 C-18.23043713 58.79607065 -13.74441573 54.46413678 -7.3125 52.5 C-3.93374915 52.235116 -0.57457233 52.26633474 2.8125 52.3125 C3.71871094 52.31314453 4.62492187 52.31378906 5.55859375 52.31445312 C12.26498724 52.35916241 12.26498724 52.35916241 15.6875 53.5 C12.99606022 45.19682712 12.99606022 45.19682712 6.6875 39.5 C2.41931172 37.73385313 -2.98222335 37.56603991 -7.28125 39.2890625 C-10.3261884 40.97926136 -13.05014878 42.83841033 -15.3125 45.5 C-19.14196843 44.04744301 -20.43300295 42.07104439 -22.3125 38.5 C-15.28065135 31.83344219 -10.30420887 28.41336664 -0.5 28 C6.22712845 28.18567446 11.36738302 29.25149303 16.6875 33.5 C23.22140178 40.70310959 26.08633524 47.7285367 25.6875 57.5 C26.368125 57.561875 27.04875 57.62375 27.75 57.6875 C35.34552036 59.78838861 38.75893483 64.56513691 42.5234375 71.09765625 C46.08619237 78.4503215 46.03584346 89.27613218 44.00390625 97.1484375 C43.05964705 99.13099 42.0243241 100.76087146 40.6875 102.5 C40.08615234 103.37978516 40.08615234 103.37978516 39.47265625 104.27734375 C32.93102273 112.942638 22.45323149 118.26828616 11.91650391 120.19824219 C-1.20153664 121.97413464 -14.53374345 122.05724591 -26.3125 115.5 C-27.54806641 114.83097656 -27.54806641 114.83097656 -28.80859375 114.1484375 C-38.15801651 108.50409796 -44.07509798 100.41422687 -48.3125 90.5 C-48.60898437 89.84386719 -48.90546875 89.18773438 -49.2109375 88.51171875 C-53.30878544 78.71339918 -53.65610018 67.97454159 -53.625 57.5 C-53.64111328 56.41460937 -53.65722656 55.32921875 -53.67382812 54.2109375 C-53.68191011 40.66552924 -50.26028721 26.44567407 -41.13671875 16.01171875 C-38.94935037 14.00568661 -36.72214747 12.23021972 -34.3125 10.5 C-33.71050781 10.03335938 -33.10851562 9.56671875 -32.48828125 9.0859375 C-22.68923541 2.1564604 -11.73536197 0.05245186 0 0 Z " fill="#F6F6F6" transform="translate(91.3125,29.5)"/>
<path d="M0 0 C5.89938395 4.71109449 9.92734358 11.30607541 11.19140625 18.75 C11.26544303 21.08215844 11.28656511 23.41860788 11.19140625 25.75 C12.21234375 25.8428125 12.21234375 25.8428125 13.25390625 25.9375 C17.22319562 27.03538855 19.9778018 29.24023975 23.19140625 31.75 C22.86140625 33.73 22.53140625 35.71 22.19140625 37.75 C21.20140625 37.255 21.20140625 37.255 20.19140625 36.75 C20.96779945 39.8245356 20.96779945 39.8245356 23.19140625 41.75 C21.87140625 42.74 20.55140625 43.73 19.19140625 44.75 C18.63453125 43.821875 18.07765625 42.89375 17.50390625 41.9375 C15.2335277 38.8080593 13.59632522 37.45245949 10.19140625 35.75 C10.10890625 36.575 10.02640625 37.4 9.94140625 38.25 C8.1747974 46.49417464 4.19656825 52.02994432 -2.80859375 56.75 C-9.30650125 60.16230897 -16.6030944 60.7905762 -23.80859375 59.75 C-29.50837833 57.54909308 -33.30307751 53.63647718 -36.80859375 48.75 C-38.57088341 43.46313103 -39.16730424 37.50389642 -36.64453125 32.390625 C-32.72653088 27.04607065 -28.24050948 22.71413678 -21.80859375 20.75 C-18.4298429 20.485116 -15.07066608 20.51633474 -11.68359375 20.5625 C-10.77738281 20.56314453 -9.87117188 20.56378906 -8.9375 20.56445312 C-2.23110651 20.60916241 -2.23110651 20.60916241 1.19140625 21.75 C-1.50003353 13.44682712 -1.50003353 13.44682712 -7.80859375 7.75 C-12.07678203 5.98385313 -17.4783171 5.81603991 -21.77734375 7.5390625 C-24.82228215 9.22926136 -27.54624253 11.08841033 -29.80859375 13.75 C-33.63806218 12.29744301 -34.9290967 10.32104439 -36.80859375 6.75 C-26.33229622 -3.18207428 -13.65123553 -7.91636723 0 0 Z " fill="#F5F5F5" transform="translate(105.80859375,61.25)"/>
<path d="M0 0 C1.175625 0.00386719 2.35125 0.00773437 3.5625 0.01171875 C7.00275637 0.31274118 9.78543405 1.08253651 13 2.3125 C12.62497936 8.31283023 11.00544629 12.74192886 7 17.3125 C1.9871771 21.13638413 -2.82544891 22.10921627 -9 21.3125 C-12.75212276 19.29747111 -14.63644095 17.85783858 -17 14.3125 C-17.48287823 10.61043356 -17.32148916 8.84419361 -15.375 5.625 C-10.71501703 1.08764816 -6.41473108 -0.09143805 0 0 Z " fill="#060606" transform="translate(94,90.6875)"/>
<path d="M0 0 C0 0.66 0 1.32 0 2 C-0.99 2.33 -1.98 2.66 -3 3 C-3.433125 3.928125 -3.433125 3.928125 -3.875 4.875 C-5.35958123 7.67920898 -7.23974247 8.54723288 -10 10 C-10 5.92253115 -8.47931949 4.16801935 -6 1 C-3.77862246 0.08531513 -2.37601523 0 0 0 Z " fill="#0F0F0F" transform="translate(31,40)"/>
<path d="M0 0 C0.33 0.66 0.66 1.32 1 2 C-2.66666667 5.66666667 -6.33333333 9.33333333 -10 13 C-10.33 12.34 -10.66 11.68 -11 11 C-9.92173635 9.72486237 -8.83714481 8.45507431 -7.75 7.1875 C-7.14671875 6.47980469 -6.5434375 5.77210937 -5.921875 5.04296875 C-4.07629602 3.08110329 -2.20054668 1.54330375 0 0 Z " fill="#DDDDDD" transform="translate(57,40)"/>
<path d="M0 0 C2.97 0.33 5.94 0.66 9 1 C9 1.99 9 2.98 9 4 C4.99799622 5.60080151 1.95443764 4.29279692 -2 3 C-1.34 2.67 -0.68 2.34 0 2 C0 1.34 0 0.68 0 0 Z " fill="#E8E8E8" transform="translate(112,9)"/>
<path d="M0 0 C2.125 0.9375 2.125 0.9375 4 2 C3.34 3.32 2.68 4.64 2 6 C0.68 5.34 -0.64 4.68 -2 4 C-2 3.01 -2 2.02 -2 1 C-1.34 0.67 -0.68 0.34 0 0 Z " fill="#0F0F0F" transform="translate(65,129)"/>
<path d="M0 0 C0.66 0.33 1.32 0.66 2 1 C1.34 2.65 0.68 4.3 0 6 C-0.66 6 -1.32 6 -2 6 C-3.62514468 7.45833358 -3.62514468 7.45833358 -5 9 C-3.90931332 5.22454612 -3.0916909 2.52956528 0 0 Z " fill="#F1F1F1" transform="translate(166,122)"/>
<path d="M0 0 C-1.34710422 4.04131267 -3.38428334 4.90288434 -7 7 C-7.99 7 -8.98 7 -10 7 C-8.90536178 5.82438854 -7.79892814 4.6597511 -6.6875 3.5 C-6.07261719 2.8503125 -5.45773438 2.200625 -4.82421875 1.53125 C-3 0 -3 0 0 0 Z " fill="#131313" transform="translate(36,32)"/>
<path d="M0 0 C0.99 0.33 1.98 0.66 3 1 C2.01 1.495 2.01 1.495 1 2 C0.27840576 3.64363134 -0.39351421 5.31050386 -1 7 C-2.32 6.34 -3.64 5.68 -5 5 C-3.35 3.35 -1.7 1.7 0 0 Z " fill="#D8D8D8" transform="translate(152,142)"/>
<path d="M0 0 C0.99 0.33 1.98 0.66 3 1 C3 1.99 3 2.98 3 4 C0.5 5.6875 0.5 5.6875 -2 7 C-2.33 5.35 -2.66 3.7 -3 2 C-2.01 1.34 -1.02 0.68 0 0 Z " fill="#FDFDFD" transform="translate(54,128)"/>
<path d="M0 0 C0.66 0.33 1.32 0.66 2 1 C2 1.66 2 2.32 2 3 C-2.49656104 5.24828052 -6.07872966 5.16682272 -11 5 C-11 4.67 -11 4.34 -11 4 C-7.7 3.67 -4.4 3.34 -1 3 C-0.67 2.01 -0.34 1.02 0 0 Z " fill="#353535" transform="translate(96,107)"/>
<path d="M0 0 C1.5625 1.1875 1.5625 1.1875 3 3 C2.6875 5.6875 2.6875 5.6875 2 8 C0.68 6.35 -0.64 4.7 -2 3 C-1.34 2.01 -0.68 1.02 0 0 Z " fill="#E9E9E9" transform="translate(126,91)"/>
<path d="M0 0 C0.99 0.33 1.98 0.66 3 1 C2.67 1.66 2.34 2.32 2 3 C1.34 3 0.68 3 0 3 C-0.33 3.66 -0.66 4.32 -1 5 C-3.0625 5.625 -3.0625 5.625 -5 6 C-3.35 4.02 -1.7 2.04 0 0 Z " fill="#EAEAEA" transform="translate(76,86)"/>
<path d="M0 0 C2.0625 0.4375 2.0625 0.4375 4 1 C3.34 2.65 2.68 4.3 2 6 C1.34 6 0.68 6 0 6 C-0.38218767 4.34385343 -0.71395102 2.67542976 -1 1 C-0.67 0.67 -0.34 0.34 0 0 Z " fill="#EBEBEB" transform="translate(105,71)"/>
<path d="M0 0 C0 1.32 0 2.64 0 4 C-0.66 4 -1.32 4 -2 4 C-2 4.66 -2 5.32 -2 6 C-2.66 6 -3.32 6 -4 6 C-4 4.35 -4 2.7 -4 1 C-2 0 -2 0 0 0 Z " fill="#EFEFEF" transform="translate(111,137)"/>
<path d="M0 0 C1.875 0.25 1.875 0.25 4 1 C5.25 3.0625 5.25 3.0625 6 5 C5.34 5.66 4.68 6.32 4 7 C4 6.34 4 5.68 4 5 C3.34 5 2.68 5 2 5 C2 4.34 2 3.68 2 3 C1.34 3 0.68 3 0 3 C0 2.01 0 1.02 0 0 Z " fill="#E1E1E1" transform="translate(20,135)"/>
<path d="M0 0 C1.98 0.495 1.98 0.495 4 1 C4 1.99 4 2.98 4 4 C2.35 4.33 0.7 4.66 -1 5 C-0.67 3.35 -0.34 1.7 0 0 Z " fill="#181818" transform="translate(116,97)"/>
<path d="M0 0 C0.66 0.33 1.32 0.66 2 1 C1.25 2.9375 1.25 2.9375 0 5 C-2.125 5.75 -2.125 5.75 -4 6 C-4 5.01 -4 4.02 -4 3 C-2 1.3125 -2 1.3125 0 0 Z " fill="#1F1F1F" transform="translate(43,23)"/>
</svg>
